<svg width="40" height="40" viewBox="0 0 40 40" fill="none" xmlns="http://www.w3.org/2000/svg">
  <circle cx="20" cy="20" r="18" fill="#3B82F6" stroke="white" stroke-width="4"/>
  <path d="M20 10C17.79 10 16 11.79 16 14C16 16.21 17.79 18 20 18C22.21 18 24 16.21 24 14C24 11.79 22.21 10 20 10ZM20 16C18.9 16 18 15.1 18 14C18 12.9 18.9 12 20 12C21.1 12 22 12.9 22 14C22 15.1 21.1 16 20 16ZM20 20C16.67 20 10 21.67 10 25V30H30V25C30 21.67 23.33 20 20 20ZM28 28H12V25.9C12.16 25.36 15.97 22 20 22C24.03 22 27.84 25.36 28 25.9V28Z" fill="white"/>
</svg> 